<?xml version="1.0" standalone="no"?>
<!DOCTYPE svg PUBLIC "-//W3C//DTD SVG 20010904//EN"
 "http://www.w3.org/TR/2001/REC-SVG-20010904/DTD/svg10.dtd">
<svg version="1.0" xmlns="http://www.w3.org/2000/svg"
 width="260.000000pt" height="260.000000pt" viewBox="0 0 260.000000 260.000000"
 preserveAspectRatio="xMidYMid meet">
<metadata>
Created by potrace 1.11, written by Peter Selinger 2001-2013
</metadata>
<g transform="translate(0.000000,260.000000) scale(0.100000,-0.100000)"
fill="#000000" stroke="none">
<path d="M0 1300 l0 -1300 1300 0 1300 0 0 1300 0 1300 -1300 0 -1300 0 0
-1300z m929 287 l126 -398 41 123 41 123 -29 3 -28 3 0 105 0 104 64 0 c61 0
64 1 71 28 3 15 27 91 52 170 l46 142 134 0 c73 0 133 -2 133 -4 0 -2 -25 -76
-55 -165 -30 -89 -55 -164 -55 -167 0 -2 124 -4 275 -4 l275 0 0 -105 0 -105
-170 0 -170 0 0 -470 0 -470 -125 0 -125 0 0 470 c0 597 5 591 -133 170 l-98
-300 -150 0 c-103 0 -149 3 -149 11 0 6 -81 262 -180 568 -99 306 -180 560
-180 564 0 4 59 6 131 5 l132 -3 126 -398z"/>
</g>
</svg>
